<?xml version="1.0" standalone="no"?>
<!DOCTYPE svg PUBLIC "-//W3C//DTD SVG 20010904//EN"
 "http://www.w3.org/TR/2001/REC-SVG-20010904/DTD/svg10.dtd">
<svg version="1.0" xmlns="http://www.w3.org/2000/svg"
 width="512.000000pt" height="512.000000pt" viewBox="0 0 512.000000 512.000000"
 preserveAspectRatio="xMidYMid meet">

<g transform="translate(0.000000,512.000000) scale(0.100000,-0.100000)"
fill="#000000" stroke="none">
<path d="M2403 5105 c-218 -39 -422 -158 -562 -327 -77 -92 -164 -264 -191
-378 -14 -56 -23 -137 -27 -237 l-6 -153 -381 0 c-376 0 -382 -1 -420 -23 -22
-12 -47 -38 -57 -57 -14 -28 -58 -423 -215 -1919 l-197 -1884 22 -42 c13 -25
37 -51 60 -63 l39 -22 2098 0 2099 0 39 23 c44 25 76 77 76 122 0 16 -88 866
-195 1889 -141 1342 -200 1869 -212 1893 -8 18 -30 43 -47 56 -31 22 -36 22
-422 25 l-391 3 -6 152 c-7 170 -21 249 -67 364 -96 241 -306 446 -547 533
-159 57 -334 73 -490 45z m260 -299 c124 -13 283 -98 377 -203 61 -70 125
-189 145 -274 9 -39 15 -113 15 -191 l0 -128 -636 0 -636 0 4 148 c6 167 22
233 85 342 76 130 232 252 373 291 50 13 164 27 195 23 11 -2 46 -5 78 -8z
m-1041 -1290 c3 -216 6 -224 79 -274 28 -19 44 -23 85 -20 61 5 97 29 124 84
18 36 20 60 20 222 l0 182 634 0 634 0 4 -194 c3 -179 5 -197 24 -223 74 -100
206 -97 261 7 22 40 23 55 23 227 l0 183 295 0 294 0 6 -32 c3 -18 81 -764
175 -1658 93 -894 172 -1646 176 -1672 l6 -48 -1890 0 c-1040 0 -1893 3 -1895
8 -3 5 335 3266 353 3400 0 1 132 2 294 2 l294 0 4 -194z"/>
</g>
</svg>
